<svg width="40" height="40" viewBox="0 0 40 40" fill="none" xmlns="http://www.w3.org/2000/svg">
<rect width="40" height="40" fill="url(#paint0_linear)"/>
<path d="M25.8248 7H14.1749C10.2187 7 7 10.2188 7 14.1751V25.8249C7 29.7813 10.2187 33 14.1749 33H25.8248C29.7813 33 33 29.7812 33 25.8249V14.1751C33.0002 10.2188 29.7813 7 25.8248 7ZM30.6933 25.8249C30.6933 28.5093 28.5093 30.6932 25.8249 30.6932H14.1749C11.4907 30.6933 9.30685 28.5093 9.30685 25.8249V14.1751C9.30685 11.4908 11.4907 9.30685 14.1749 9.30685H25.8248C28.5092 9.30685 30.6932 11.4908 30.6932 14.1751V25.8249H30.6933Z" fill="white"/>
<path d="M20.0001 13.3009C16.3059 13.3009 13.3005 16.3063 13.3005 20.0004C13.3005 23.6945 16.3059 26.6997 20.0001 26.6997C23.6943 26.6997 26.6996 23.6945 26.6996 20.0004C26.6996 16.3063 23.6943 13.3009 20.0001 13.3009ZM20.0001 24.3927C17.578 24.3927 15.6074 22.4223 15.6074 20.0003C15.6074 17.5781 17.5779 15.6076 20.0001 15.6076C22.4223 15.6076 24.3928 17.5781 24.3928 20.0003C24.3928 22.4223 22.4221 24.3927 20.0001 24.3927Z" fill="white"/>
<path d="M26.981 11.3447C26.5365 11.3447 26.0999 11.5247 25.786 11.8399C25.4706 12.1537 25.2893 12.5904 25.2893 13.0364C25.2893 13.481 25.4708 13.9176 25.786 14.2329C26.0998 14.5466 26.5365 14.7281 26.981 14.7281C27.427 14.7281 27.8622 14.5466 28.1775 14.2329C28.4927 13.9176 28.6727 13.4809 28.6727 13.0364C28.6727 12.5904 28.4927 12.1537 28.1775 11.8399C27.8637 11.5247 27.427 11.3447 26.981 11.3447Z" fill="white"/>
<defs>
<linearGradient id="paint0_linear" x1="2.68567" y1="37.394" x2="39.7484" y2="5.31035" gradientUnits="userSpaceOnUse">
<stop stop-color="#F1C800"/>
<stop offset="0.359375" stop-color="#F02501"/>
<stop offset="0.671875" stop-color="#C837AB"/>
<stop offset="1" stop-color="#7C39AD"/>
</linearGradient>
</defs>
</svg>
