<svg width="20" height="16" viewBox="0 0 20 16" fill="none" xmlns="http://www.w3.org/2000/svg">
<path d="M10.0002 0.454346C4.47737 0.454346 0 4.97421 0 10.5498C0 13.573 1.30469 15.5447 1.30469 15.5447L18.6915 15.5456C18.6915 15.5456 20 13.3907 20 10.5496C20 4.97421 15.5226 0.454346 10.0002 0.454346ZM17.9581 14.3157L2.07397 14.3088C2.07397 14.3088 1.22758 12.7059 1.22758 10.5179C1.22758 5.63116 5.17016 1.66934 10.0337 1.66934C14.8971 1.66934 18.8399 5.63095 18.8399 10.5179C18.8401 12.7306 17.9581 14.3157 17.9581 14.3157Z" fill="#EF1E25"/>
<path d="M12.8261 3.13512L12.7006 3.13491L10.0332 8.3618L7.26974 3.09027L3.48621 12.6134H2.50842V13.3783H7.86509V12.6134H6.80222L7.86509 9.63714L10.0332 13.3783L12.1163 9.63714L13.179 12.6134H12.1163V13.3783H17.4303V12.6134H16.5097L12.8261 3.13512Z" fill="#EF1E25"/>
</svg>
